# xmcd CD database file
#
# Track frame offsets:
#	150
#	25793
#	35214
#	43410
#	64629
#	86185
#	107977
#	120427
#	137193
#	151551
#
# Disc length: 2256 seconds
#
# Revision: 0
# Processed by: cddbd v1.5.2PL0 Copyright (c) Steve Scherf et al.
# Submitted via: CDex 1.70beta2
#
DISCID=8608ce0a
DTITLE=Chris Jones and Charlie Carr - Analog Pearls Vol.3
DYEAR=1979
DGENRE=Country
TTITLE0=Cod'ine
TTITLE1=Instr.
TTITLE2=Footprints in the Snow - Instr.
TTITLE3=The Goodbye Song
TTITLE4=Walter
TTITLE5=Willin'
TTITLE6=Hills of Shiloh
TTITLE7=Johnny, I Hardly Knew You
TTITLE8=John Henry
TTITLE9=Moving You Out
EXTD=YEAR: 1979
EXTT0=
EXTT1=
EXTT2=
EXTT3=
EXTT4=
EXTT5=
EXTT6=
EXTT7=
EXTT8=
EXTT9=
PLAYORDER=
